<svg width="20" height="20" viewBox="0 0 20 20" fill="none" xmlns="http://www.w3.org/2000/svg">
<path d="M15.2734 2.92969C15.2734 1.25941 13.0064 0 10 0C6.99363 0 4.72656 1.25941 4.72656 2.92969C4.72656 3.25336 4.98891 3.51562 5.3125 3.51562H14.6875C15.0111 3.51562 15.2734 3.25336 15.2734 2.92969Z" fill="#FFCE23"/>
<path d="M8.72211 16.5869L9.19582 15.9554L8.51019 15.3892L8.72211 16.5869Z" fill="#FFCE23"/>
<path d="M10.6806 20L10.9982 18.1664L10 16.8354L9.00172 18.1664L9.3193 20H10.6806Z" fill="#FFCE23"/>
<path d="M11.4897 15.3893L10.8042 15.9553L11.2777 16.5868L11.4897 15.3893Z" fill="#FFCE23"/>
<path d="M6.89234 12.9697L6.57879 13.0212C4.1475 13.4189 2.38281 15.4834 2.38281 17.9308V20H8.12969L6.89234 12.9697Z" fill="#FFCE23"/>
<path d="M17.6172 17.9308C17.6172 15.4834 15.8525 13.4189 13.4212 13.0212L13.1074 12.9697L11.8702 20H17.6172V17.9308Z" fill="#FFCE23"/>
<path d="M11.9413 12.8374C11.6911 12.8883 11.4373 12.9297 11.1719 12.9297H8.82812C8.56262 12.9297 8.30871 12.8883 8.05859 12.8374L8.19512 13.609L10 15.0995L11.8046 13.6092L11.9413 12.8374Z" fill="#FFCE23"/>
<path d="M8.82812 11.7578H11.1719C12.7872 11.7578 14.1016 10.4435 14.1016 8.82813V7.29126C13.7555 7.4931 13.3585 7.6172 12.9297 7.6172H7.07031C6.64152 7.6172 6.24453 7.4931 5.89844 7.29126V8.82813C5.89844 10.4435 7.21277 11.7578 8.82812 11.7578Z" fill="#FFCE23"/>
<path d="M7.07031 6.44531H12.9297C13.5769 6.44531 14.1016 5.92066 14.1016 5.27344V4.6875H5.89844V5.27344C5.89844 5.92066 6.42309 6.44531 7.07031 6.44531Z" fill="#FFCE23"/>
</svg>
