<svg width="126" height="56" viewBox="0 0 126 56" fill="none" xmlns="http://www.w3.org/2000/svg">
<path d="M53.368 6.884H49.768V17H46.69V6.884H43.09V4.256H53.368V6.884ZM65.7607 17H62.3407L61.3507 14.498H56.4187L55.4827 17H52.1347L57.4807 4.256H60.4687L65.7607 17ZM60.5047 12.032L58.9207 7.658L57.3007 12.032H60.5047ZM78.298 17H74.5L71.71 12.5L69.028 17H65.356L69.82 10.268L65.716 4.256H69.424L71.8 8.216L74.14 4.256H77.722L73.69 10.268L78.298 17ZM82.5663 17H79.4703V4.256H82.5663V17Z" fill="#5654E4"/>
<path d="M12.33 39.876L10.602 41.244C10.29 40.812 9.864 40.488 9.324 40.272C8.796 40.044 8.256 39.93 7.704 39.93C6.408 39.93 5.346 40.374 4.518 41.262C3.702 42.15 3.294 43.26 3.294 44.592C3.294 45.984 3.684 47.118 4.464 47.994C5.256 48.858 6.306 49.29 7.614 49.29C8.958 49.29 9.99 48.798 10.71 47.814L12.528 49.092C11.34 50.58 9.696 51.324 7.596 51.324C5.604 51.324 3.972 50.7 2.7 49.452C1.428 48.192 0.792 46.572 0.792 44.592C0.792 42.588 1.44 40.98 2.736 39.768C4.044 38.544 5.7 37.932 7.704 37.932C8.592 37.932 9.462 38.1 10.314 38.436C11.178 38.76 11.85 39.24 12.33 39.876ZM13.8292 51V42.36H15.9892V47.94H16.0252L19.8052 42.36H22.1452V51H19.9852V45.456H19.9492L16.2052 51H13.8292ZM24.7452 51V42.36H27.7692L30.2892 48.192H30.3072L32.7372 42.36H35.7972V51H33.6732V44.88H33.6372L30.9552 51H29.5152L26.9052 44.862H26.8692V51H24.7452ZM45.0998 49.506C46.0118 49.494 46.7138 49.236 47.2058 48.732C47.7098 48.228 47.9618 47.55 47.9618 46.698C47.9618 45.858 47.7098 45.192 47.2058 44.7C46.7018 44.208 45.9998 43.956 45.0998 43.944V49.506ZM45.0998 55.32H42.9398V51.288C41.3678 51.276 40.1318 50.85 39.2318 50.01C38.3318 49.17 37.8818 48.072 37.8818 46.716C37.8818 45.312 38.3258 44.208 39.2138 43.404C40.1018 42.6 41.3438 42.186 42.9398 42.162V37.392H45.0998V42.162C46.6958 42.186 47.9378 42.6 48.8258 43.404C49.7138 44.208 50.1578 45.312 50.1578 46.716C50.1578 48.072 49.7078 49.17 48.8078 50.01C47.9078 50.85 46.6718 51.276 45.0998 51.288V55.32ZM42.9398 49.506V43.944C42.0398 43.956 41.3378 44.208 40.8338 44.7C40.3298 45.192 40.0778 45.858 40.0778 46.698C40.0778 47.55 40.3238 48.228 40.8158 48.732C41.3198 49.236 42.0278 49.494 42.9398 49.506ZM53.8934 45.816H58.3214C58.3214 45.216 58.1474 44.718 57.7994 44.322C57.4514 43.926 56.9474 43.728 56.2874 43.728C55.6514 43.728 55.1054 43.926 54.6494 44.322C54.1934 44.718 53.9414 45.216 53.8934 45.816ZM60.4814 46.788C60.4814 47.04 60.4754 47.232 60.4634 47.364H53.8934C53.9414 47.964 54.2054 48.468 54.6854 48.876C55.1654 49.284 55.7234 49.488 56.3594 49.488C57.3554 49.488 58.1174 49.116 58.6454 48.372L60.0854 49.524C59.2334 50.676 57.9974 51.252 56.3774 51.252C55.0214 51.252 53.9054 50.844 53.0294 50.028C52.1654 49.212 51.7334 48.114 51.7334 46.734C51.7334 45.354 52.1654 44.238 53.0294 43.386C53.8934 42.534 54.9854 42.108 56.3054 42.108C57.5534 42.108 58.5614 42.51 59.3294 43.314C60.0974 44.118 60.4814 45.276 60.4814 46.788ZM62.5733 42.36H64.6433V43.566H64.6973C64.9493 43.17 65.3273 42.828 65.8313 42.54C66.3473 42.252 66.9653 42.108 67.6853 42.108C68.9093 42.108 69.9113 42.54 70.6913 43.404C71.4833 44.268 71.8793 45.348 71.8793 46.644C71.8793 47.94 71.4893 49.032 70.7093 49.92C69.9413 50.808 68.9153 51.252 67.6313 51.252C67.0313 51.252 66.4733 51.126 65.9573 50.874C65.4413 50.622 65.0453 50.28 64.7693 49.848H64.7333V55.32H62.5733V42.36ZM69.0173 48.606C69.4613 48.042 69.6833 47.388 69.6833 46.644C69.6833 45.9 69.4613 45.252 69.0173 44.7C68.5853 44.148 67.9793 43.872 67.1993 43.872C66.4433 43.872 65.8313 44.16 65.3633 44.736C64.8953 45.312 64.6613 45.96 64.6613 46.68C64.6613 47.4 64.8953 48.042 65.3633 48.606C65.8313 49.17 66.4433 49.452 67.1993 49.452C67.9793 49.452 68.5853 49.17 69.0173 48.606ZM73.46 46.644C73.46 45.312 73.91 44.226 74.81 43.386C75.71 42.534 76.826 42.108 78.158 42.108C79.49 42.108 80.606 42.534 81.506 43.386C82.406 44.226 82.856 45.312 82.856 46.644C82.856 47.988 82.4 49.092 81.488 49.956C80.588 50.82 79.478 51.252 78.158 51.252C76.838 51.252 75.722 50.82 74.81 49.956C73.91 49.092 73.46 47.988 73.46 46.644ZM76.304 44.7C75.872 45.252 75.656 45.9 75.656 46.644C75.656 47.388 75.872 48.042 76.304 48.606C76.736 49.17 77.354 49.452 78.158 49.452C78.962 49.452 79.58 49.17 80.012 48.606C80.444 48.042 80.66 47.388 80.66 46.644C80.66 45.9 80.444 45.252 80.012 44.7C79.58 44.148 78.962 43.872 78.158 43.872C77.354 43.872 76.736 44.148 76.304 44.7ZM84.9503 51V42.36H92.9063V51H90.7463V44.088H87.1103V51H84.9503ZM94.9932 46.644C94.9932 45.312 95.4432 44.226 96.3432 43.386C97.2432 42.534 98.3592 42.108 99.6912 42.108C101.023 42.108 102.139 42.534 103.039 43.386C103.939 44.226 104.389 45.312 104.389 46.644C104.389 47.988 103.933 49.092 103.021 49.956C102.121 50.82 101.011 51.252 99.6912 51.252C98.3712 51.252 97.2552 50.82 96.3432 49.956C95.4432 49.092 94.9932 47.988 94.9932 46.644ZM97.8372 44.7C97.4052 45.252 97.1892 45.9 97.1892 46.644C97.1892 47.388 97.4052 48.042 97.8372 48.606C98.2692 49.17 98.8872 49.452 99.6912 49.452C100.495 49.452 101.113 49.17 101.545 48.606C101.977 48.042 102.193 47.388 102.193 46.644C102.193 45.9 101.977 45.252 101.545 44.7C101.113 44.148 100.495 43.872 99.6912 43.872C98.8872 43.872 98.2692 44.148 97.8372 44.7ZM106.363 51.108C105.787 51.108 105.355 51.06 105.067 50.964L105.229 49.2C105.409 49.26 105.601 49.29 105.805 49.29C106.357 49.29 106.777 49.008 107.065 48.444C107.353 47.88 107.497 46.878 107.497 45.438V42.36H114.571V51H112.411V44.088H109.567V45.924C109.567 47.7 109.309 49.008 108.793 49.848C108.277 50.688 107.467 51.108 106.363 51.108ZM117.171 51V42.36H119.331V45.384H121.203C122.271 45.384 123.117 45.618 123.741 46.086C124.377 46.542 124.695 47.238 124.695 48.174C124.695 49.086 124.377 49.788 123.741 50.28C123.105 50.76 122.259 51 121.203 51H117.171ZM119.331 49.362H120.645C121.293 49.362 121.767 49.272 122.067 49.092C122.379 48.912 122.535 48.612 122.535 48.192C122.535 47.76 122.391 47.454 122.103 47.274C121.815 47.094 121.329 47.004 120.645 47.004H119.331V49.362Z" fill="#2C2C2C"/>
<line x1="38" y1="28" x2="88" y2="28" stroke="#2C2C2C" stroke-width="2"/>
<line x1="91" y1="28" x2="126" y2="28" stroke="#5654E4" stroke-width="2"/>
<line x1="8.74228e-08" y1="28" x2="35" y2="28" stroke="#5654E4" stroke-width="2"/>
</svg>
