<svg width="20" height="20" viewBox="0 0 20 20" fill="none" xmlns="http://www.w3.org/2000/svg">
<g clip-path="url(#clip0)">
<path d="M8.51547 6.1897C6.41418 6.1897 4.70474 7.89914 4.70474 10.0003C4.70474 12.1016 6.41418 13.811 8.51547 13.811C10.6166 13.811 12.326 12.1016 12.326 10.0003C12.326 7.89914 10.6166 6.1897 8.51547 6.1897ZM10.7779 9.28265L8.04794 12.0126C7.93335 12.1272 7.78305 12.1846 7.6329 12.1846C7.48276 12.1846 7.33261 12.1273 7.21802 12.0126L6.17477 10.9694C5.94559 10.7403 5.94559 10.3688 6.17477 10.1396C6.40381 9.9104 6.77536 9.9104 7.00455 10.1396L7.6329 10.7679L9.94812 8.45288C10.1772 8.22369 10.5487 8.22369 10.7779 8.45288C11.0071 8.68192 11.0071 9.05347 10.7779 9.28265Z" fill="#FFCE23"/>
<path d="M17.0114 5.42553L17.0108 5.40997C17.0021 5.21786 16.9963 5.01461 16.9928 4.78848C16.9764 3.68573 16.0998 2.77356 14.9969 2.71191C12.6974 2.58359 10.9186 1.83377 9.39865 0.352302L9.38568 0.339942C8.88992 -0.114616 8.14209 -0.114616 7.64618 0.339942L7.63321 0.352302C6.11329 1.83377 4.33442 2.58359 2.03493 2.71207C0.93218 2.77356 0.0554126 3.68573 0.0390858 4.78863C0.0357289 5.01324 0.0297779 5.21648 0.0210805 5.40997L0.020165 5.44613C-0.0245432 7.79094 -0.080085 10.7092 0.896169 13.3579C1.43297 14.8145 2.24596 16.0807 3.31239 17.1215C4.52699 18.3068 6.11786 19.2478 8.04077 19.9183C8.10333 19.9401 8.16833 19.9578 8.23456 19.9711C8.32794 19.9897 8.42193 19.999 8.51593 19.999C8.60992 19.999 8.70407 19.9897 8.7973 19.9711C8.86352 19.9578 8.92898 19.94 8.99185 19.918C10.9125 19.2463 12.5017 18.3048 13.7152 17.1197C14.7812 16.0786 15.5942 14.8121 16.1314 13.3552C17.1113 10.6985 17.0559 7.77477 17.0114 5.42553ZM8.51562 14.9836C5.76722 14.9836 3.53135 12.7477 3.53135 9.99934C3.53135 7.25093 5.76722 5.01507 8.51562 5.01507C11.2639 5.01507 13.4999 7.25093 13.4999 9.99934C13.4999 12.7477 11.2639 14.9836 8.51562 14.9836Z" fill="#FFCE23"/>
</g>
<defs>
<clipPath id="clip0">
<rect width="20" height="20" fill="white"/>
</clipPath>
</defs>
</svg>
