<svg width="20" height="20" viewBox="0 0 20 20" fill="none" xmlns="http://www.w3.org/2000/svg">
<g clip-path="url(#clip0)">
<path d="M18.6701 10.2591C18.5896 10.0945 18.5896 9.90564 18.6701 9.74103L19.416 8.21506C19.8314 7.36542 19.5023 6.35273 18.6669 5.90949L17.1665 5.1134C17.0047 5.02754 16.8937 4.87473 16.862 4.6943L16.5686 3.02131C16.4052 2.08983 15.5435 1.46389 14.6073 1.59635L12.9256 1.83424C12.7441 1.85987 12.5646 1.80151 12.4329 1.67413L11.2121 0.493195C10.5324 -0.164379 9.46759 -0.164418 8.7879 0.493195L7.56713 1.67424C7.43541 1.80166 7.25592 1.85991 7.07444 1.83436L5.39269 1.59647C4.45617 1.46393 3.59485 2.08994 3.43145 3.02142L3.13802 4.69434C3.10634 4.87481 2.99536 5.02758 2.83352 5.11348L1.33314 5.90957C0.497757 6.35277 0.168697 7.36554 0.584007 8.21518L1.3299 9.74111C1.41037 9.90576 1.41037 10.0946 1.3299 10.2592L0.583968 11.7851C0.168658 12.6348 0.497718 13.6475 1.3331 14.0907L2.83349 14.8868C2.99536 14.9726 3.10634 15.1255 3.13802 15.3059L3.43145 16.9789C3.5802 17.8268 4.30731 18.4215 5.14296 18.4214C5.22527 18.4214 5.30878 18.4157 5.39273 18.4038L7.07448 18.1659C7.25584 18.1402 7.43545 18.1986 7.56717 18.326L8.7879 19.507C9.12782 19.8358 9.56384 20.0002 10 20.0001C10.4361 20.0001 10.8723 19.8357 11.2121 19.507L12.4329 18.326C12.5646 18.1986 12.7441 18.1404 12.9256 18.1659L14.6073 18.4038C15.544 18.5363 16.4052 17.9103 16.5686 16.9788L16.862 15.3059C16.8937 15.1255 17.0047 14.9727 17.1665 14.8868L18.6669 14.0907C19.5023 13.6475 19.8314 12.6347 19.416 11.7851L18.6701 10.2591ZM7.69295 4.80926C8.85904 4.80926 9.80774 5.75797 9.80774 6.92406C9.80774 8.09014 8.85904 9.03885 7.69295 9.03885C6.52686 9.03885 5.57816 8.09014 5.57816 6.92406C5.57816 5.75797 6.52686 4.80926 7.69295 4.80926ZM6.60139 14.2143C6.48878 14.3269 6.34116 14.3832 6.19358 14.3832C6.04601 14.3832 5.89835 14.3269 5.78577 14.2143C5.56054 13.9891 5.56054 13.6239 5.78577 13.3986L13.3986 5.78582C13.6238 5.56059 13.989 5.56059 14.2142 5.78582C14.4395 6.01105 14.4395 6.37625 14.2142 6.60148L6.60139 14.2143ZM12.307 15.1909C11.1409 15.1909 10.1922 14.2422 10.1922 13.0761C10.1922 11.91 11.1409 10.9613 12.307 10.9613C13.4731 10.9613 14.4218 11.91 14.4218 13.0761C14.4218 14.2422 13.4731 15.1909 12.307 15.1909Z" fill="#FFCE23"/>
<path d="M12.307 12.1149C11.7769 12.1149 11.3457 12.5461 11.3457 13.0761C11.3457 13.6062 11.7769 14.0374 12.307 14.0374C12.837 14.0374 13.2682 13.6062 13.2682 13.0761C13.2682 12.5461 12.837 12.1149 12.307 12.1149Z" fill="#FFCE23"/>
<path d="M7.69295 5.96289C7.16292 5.96289 6.7317 6.3941 6.7317 6.92414C6.7317 7.45418 7.16292 7.88543 7.69295 7.88543C8.22299 7.88543 8.65424 7.45422 8.65424 6.92414C8.65421 6.39414 8.22299 5.96289 7.69295 5.96289Z" fill="#FFCE23"/>
</g>
<defs>
<clipPath id="clip0">
<rect width="20" height="20" fill="white"/>
</clipPath>
</defs>
</svg>
