<svg width="20" height="20" viewBox="0 0 20 20" fill="none" xmlns="http://www.w3.org/2000/svg">
<g clip-path="url(#clip0)">
<path d="M17.9437 3.93743L18.817 3.93805L18.8178 2.76637L16.1362 2.76442L15.7902 5.46618L16.9526 5.61497L17.0671 4.72055C18.2083 6.23931 18.8267 8.07681 18.8281 10.0088C18.8298 12.3664 17.9132 14.5821 16.2473 16.2478C14.5828 17.9121 12.3694 18.8283 10.0139 18.8283H10.0073C7.64903 18.8266 5.43125 17.9067 3.76243 16.2381C2.09356 14.5696 1.17352 12.3521 1.1718 9.99423C1.17008 7.63665 2.08665 5.42091 3.75262 3.7552C6.25211 1.25613 9.99051 0.491718 13.2766 1.80777L13.7123 0.720117C9.99016 -0.770667 5.75559 0.0954674 2.92403 2.92668C1.03641 4.81395 -0.00202667 7.32423 -7.35438e-05 9.99509C0.00187958 12.6656 1.04379 15.177 2.93372 17.0667C4.82364 18.9563 7.33543 19.9981 10.0064 20H10.0139C12.6822 20 15.1901 18.9618 17.0758 17.0764C18.9634 15.1891 20.0019 12.6788 19.9999 10.008C19.9983 7.78517 19.2756 5.67298 17.9437 3.93743Z" fill="#FFCE23"/>
<path d="M10 3.90857C6.63984 3.90857 3.90625 6.64177 3.90625 10.0015C3.90625 13.3613 6.63984 16.0945 10 16.0945C13.3602 16.0945 16.0938 13.3613 16.0938 10.0015C16.0938 6.64177 13.3602 3.90857 10 3.90857ZM12.5117 10.5875H9.41406V7.49021H10.5859V9.4156H12.5117V10.5875Z" fill="#FFCE23"/>
</g>
<defs>
<clipPath id="clip0">
<rect width="20" height="20" fill="white"/>
</clipPath>
</defs>
</svg>
